<?xml version="1.0" encoding="UTF-8" standalone="no"?>
<!DOCTYPE svg PUBLIC "-//W3C//DTD SVG 1.1//EN"
 "http://www.w3.org/Graphics/SVG/1.1/DTD/svg11.dtd">
<!-- Generated by graphviz version 2.50.0 (0)
 -->
<!-- Title: G Pages: 1 -->
<svg width="317pt" height="314pt"
 viewBox="0.00 0.00 316.98 314.00" xmlns="http://www.w3.org/2000/svg" xmlns:xlink="http://www.w3.org/1999/xlink">
<g id="graph0" class="graph" transform="scale(1 1) rotate(0) translate(4 310)">
<title>G</title>
<polygon fill="white" stroke="transparent" points="-4,4 -4,-310 312.98,-310 312.98,4 -4,4"/>
<!-- https://trucol.io -->
<g id="node1" class="node">
<title>https://trucol.io</title>
<ellipse fill="none" stroke="black" cx="82.54" cy="-153" rx="82.59" ry="18"/>
<text text-anchor="middle" x="82.54" y="-149.3" font-family="Times,serif" font-size="14.00">https://trucol.io</text>
</g>
<!-- TruSec -->
<g id="node2" class="node">
<title>TruSec</title>
<ellipse fill="none" stroke="black" cx="255.03" cy="-288" rx="43.59" ry="18"/>
<text text-anchor="middle" x="255.03" y="-284.3" font-family="Times,serif" font-size="14.00">TruSec</text>
</g>
<!-- https://trucol.io&#45;&#45;TruSec -->
<g id="edge1" class="edge">
<title>https://trucol.io&#45;&#45;TruSec</title>
<path fill="none" stroke="black" d="M99.81,-170.67C121.42,-193.48 161.49,-233.48 201.09,-261 208.46,-266.12 216.93,-270.88 224.91,-274.93"/>
</g>
<!-- Usecases -->
<g id="node3" class="node">
<title>Usecases</title>
<ellipse fill="none" stroke="black" cx="255.03" cy="-234" rx="53.89" ry="18"/>
<text text-anchor="middle" x="255.03" y="-230.3" font-family="Times,serif" font-size="14.00">Usecases</text>
</g>
<!-- https://trucol.io&#45;&#45;Usecases -->
<g id="edge2" class="edge">
<title>https://trucol.io&#45;&#45;Usecases</title>
<path fill="none" stroke="black" d="M118.04,-169.39C148.89,-184.05 193.67,-205.32 223.3,-219.4"/>
</g>
<!-- about -->
<g id="node4" class="node">
<title>about</title>
<ellipse fill="none" stroke="black" cx="255.03" cy="-180" rx="37.09" ry="18"/>
<text text-anchor="middle" x="255.03" y="-176.3" font-family="Times,serif" font-size="14.00">about</text>
</g>
<!-- https://trucol.io&#45;&#45;about -->
<g id="edge3" class="edge">
<title>https://trucol.io&#45;&#45;about</title>
<path fill="none" stroke="black" d="M149.95,-163.52C173.69,-167.28 199.5,-171.36 219.47,-174.53"/>
</g>
<!-- contact -->
<g id="node5" class="node">
<title>contact</title>
<ellipse fill="none" stroke="black" cx="255.03" cy="-126" rx="44.69" ry="18"/>
<text text-anchor="middle" x="255.03" y="-122.3" font-family="Times,serif" font-size="14.00">contact</text>
</g>
<!-- https://trucol.io&#45;&#45;contact -->
<g id="edge4" class="edge">
<title>https://trucol.io&#45;&#45;contact</title>
<path fill="none" stroke="black" d="M149.95,-142.48C171.26,-139.11 194.23,-135.47 213.16,-132.47"/>
</g>
<!-- faq -->
<g id="node6" class="node">
<title>faq</title>
<ellipse fill="none" stroke="black" cx="255.03" cy="-72" rx="27" ry="18"/>
<text text-anchor="middle" x="255.03" y="-68.3" font-family="Times,serif" font-size="14.00">faq</text>
</g>
<!-- https://trucol.io&#45;&#45;faq -->
<g id="edge5" class="edge">
<title>https://trucol.io&#45;&#45;faq</title>
<path fill="none" stroke="black" d="M118.04,-136.61C152.29,-120.34 203.72,-95.9 232.52,-82.22"/>
</g>
<!-- protocol -->
<g id="node7" class="node">
<title>protocol</title>
<ellipse fill="none" stroke="black" cx="255.03" cy="-18" rx="48.99" ry="18"/>
<text text-anchor="middle" x="255.03" y="-14.3" font-family="Times,serif" font-size="14.00">protocol</text>
</g>
<!-- https://trucol.io&#45;&#45;protocol -->
<g id="edge6" class="edge">
<title>https://trucol.io&#45;&#45;protocol</title>
<path fill="none" stroke="black" d="M99.81,-135.33C121.42,-112.52 161.49,-72.52 201.09,-45 208.03,-40.17 215.96,-35.67 223.53,-31.77"/>
</g>
</g>
</svg>
